<?xml version="1.0" encoding="utf-8"?>
 <svg version="1.1" id="Capa_1" xmlns="http://www.w3.org/2000/svg" viewBox="0 0 187.1 162" >
  <path d="M135.7,62.3l-27.5-10.5c-0.7-0.3-1.4,0.1-1.7,0.7c-0.3,0.7,0.1,1.4,0.7,1.7l24.3,9.3l-16.8,6.4l-21.2-9.6
    c-0.6-0.3-1.4,0-1.7,0.6c-0.3,0.6,0,1.4,0.6,1.7l18.8,8.5l-18.3,7L54.6,63.5l38.5-14.7l9.5,3.6c0.7,0.3,1.4-0.1,1.7-0.7
    c0.3-0.7-0.1-1.4-0.7-1.7l-10-3.8c-0.3-0.1-0.6-0.1-0.9,0L50.5,62.3c-0.5,0.2-0.8,0.7-0.8,1.2v5.9c0,0.5,0.3,1,0.8,1.2l13.2,5v4.5
    c0,0.7,0.6,1.3,1.3,1.3c0.7,0,1.3-0.6,1.3-1.3v-3.5l26.4,10.1c0.1,0.1,0.3,0.1,0.5,0.1s0.3,0,0.5-0.1l19.9-7.6v20.4
    c-6.2,3.3-13.3,5-20.4,5c-9.7,0-19.2-3.3-26.9-9.2V85.3c0-0.7-0.6-1.3-1.3-1.3c-0.7,0-1.3,0.6-1.3,1.3v10.7c0,0.4,0.2,0.8,0.5,1
    c8.2,6.6,18.5,10.2,29,10.2c7.1,0,14.1-1.6,20.4-4.7v5.2c-2.1,0.6-3.6,2.5-3.6,4.7c0,2.7,2.2,4.9,4.9,4.9c2.7,0,4.9-2.2,4.9-4.9
    c0-2.3-1.5-4.2-3.6-4.7V101c2.1-1.2,4.1-2.6,6-4.1c0.3-0.2,0.5-0.6,0.5-1V75.6l13.2-5c0.5-0.2,0.8-0.7,0.8-1.2v-5.9
    C136.5,63,136.2,62.5,135.7,62.3z M117.1,112.3c0,1.3-1,2.3-2.3,2.3c-1.3,0-2.3-1-2.3-2.3c0-1.3,1-2.3,2.3-2.3
    C116,110,117.1,111.1,117.1,112.3z M52.2,65.4l39.6,15.1v3.1L52.2,68.5V65.4z M94.4,83.6v-3.1l19.1-7.3v3.1L94.4,83.6z M120,95.3
    c-1.3,1-2.6,1.9-3.9,2.7V78.1l3.9-1.5V95.3z M116,75.3v-3.1l17.9-6.8v3.1L116,75.3z"/>
</svg>
