<?xml version="1.0" encoding="utf-8"?>
<!-- Generator: Adobe Illustrator 24.1.2, SVG Export Plug-In . SVG Version: 6.00 Build 0)  -->
<svg version="1.1" id="Capa_1" xmlns="http://www.w3.org/2000/svg" xmlns:xlink="http://www.w3.org/1999/xlink" x="0px" y="0px"
	 viewBox="0 0 512 512" style="enable-background:new 0 0 512 512;" xml:space="preserve">
<g>
	<path d="M51.3,67.8h407.8c17.3,0,31.4-14,31.4-31.4c0-17.3-14-31.4-31.4-31.4H51.3c-17.3,0-31.4,14-31.4,31.4
		C19.9,53.7,33.9,67.8,51.3,67.8z"/>
	<path d="M457.9,99.2H52.4c-6.9,0-13.7,2.3-19.2,6.5c-13.7,10.6-16.3,30.3-5.7,44l180.6,233.7v92.2c0,17.3,14,31.4,31.4,31.4h31.4
		c17.3,0,31.4-14,31.4-31.4v-92.3l180.5-233.6c4.2-5.5,6.5-12.2,6.5-19.1C489.3,113.2,475.3,99.2,457.9,99.2z"/>
</g>
</svg>
