<?xml version="1.0" encoding="utf-8"?>
<!-- Generator: Adobe Illustrator 24.1.2, SVG Export Plug-In . SVG Version: 6.00 Build 0)  -->
<svg version="1.1" id="Capa_1" xmlns="http://www.w3.org/2000/svg" xmlns:xlink="http://www.w3.org/1999/xlink" x="0px" y="0px"
	 viewBox="0 0 18.6 18.6" style="enable-background:new 0 0 18.6 18.6;" xml:space="preserve">
<!-- <style type="text/css">
	.st0{fill:#D35E36;}
</style> -->
<path id="Rectángulo_842" class="st0" d="M5.2,3.8l9.8,9.8c0.3,0.3,0.3,0.9,0,1.2l0,0c-0.3,0.3-0.9,0.3-1.2,0L3.9,5.1
	c-0.3-0.3-0.3-0.9,0-1.2l0,0C4.3,3.5,4.8,3.5,5.2,3.8z"/>
<path id="Rectángulo_843" class="st0" d="M14.9,5.1l-9.8,9.8c-0.3,0.3-0.9,0.3-1.2,0l0,0c-0.3-0.3-0.3-0.9,0-1.2l9.8-9.8
	c0.3-0.3,0.9-0.3,1.2,0l0,0C15.3,4.2,15.3,4.7,14.9,5.1z"/>
</svg>
