<?xml version="1.0" encoding="utf-8"?>
<!-- Generator: Adobe Illustrator 24.1.2, SVG Export Plug-In . SVG Version: 6.00 Build 0)  -->
<svg version="1.1" id="Bold" xmlns="http://www.w3.org/2000/svg" xmlns:xlink="http://www.w3.org/1999/xlink" x="0px" y="0px"
	 viewBox="0 0 512 512" style="enable-background:new 0 0 512 512;" xml:space="preserve">
<g>
	<path d="M468.6,26.5h-52c-20.1,0-36.4,16.3-36.4,36.4v239.3c0,20.1,16.3,36.4,36.4,36.4h52c20.1,0,36.4-16.3,36.4-36.4V62.9
		C505,42.9,488.7,26.5,468.6,26.5z"/>
	<path d="M112.2,21.3c-40.6,0-75.1,29.1-82,69.1L6.9,225.6c-8.7,51,30.4,97.4,82,97.4h98.2c0,0-15.6,31.2-15.6,83.2
		c0,62.4,46.8,83.2,67.6,83.2c20.8,0,31.2-10.4,31.2-62.4c0-49.4,47.9-89.2,78.7-109.7V59.6c-33.3-15.4-100-38.3-203.5-38.3H112.2z"
		/>
</g>
</svg>