<?xml version="1.0" encoding="utf-8"?>
<!-- Generator: Adobe Illustrator 24.1.2, SVG Export Plug-In . SVG Version: 6.00 Build 0)  -->
<svg version="1.1" id="Capa_1" xmlns="http://www.w3.org/2000/svg" xmlns:xlink="http://www.w3.org/1999/xlink" x="0px" y="0px"
	 viewBox="0 0 512 512" style="enable-background:new 0 0 512 512;" xml:space="preserve">
<g>
	<path d="M323,221c11.5,11.5,30.1,11.5,41.6,0l34.5-34.5l17.4,17.4c4.4,4.4,10.1,7.3,16.3,8.3c16,2.5,31.1-8.5,33.6-24.5l20.7-132.9
		c0.5-3,0.5-6,0-9c-2.5-16-17.5-27-33.6-24.5L320.4,41.8c-6.2,1-11.9,3.9-16.3,8.3c-11.5,11.5-11.5,30.1,0,41.6l23.4,23.4L293,149.5
		c-11.5,11.5-11.5,30.1,0,41.6L323,221z"/>
	<path d="M486.9,460.8l-20.7-132.9c-1-6.2-3.9-11.9-8.3-16.3c-11.5-11.5-30.1-11.5-41.6,0L399,328.9l-34.5-34.5
		c-11.5-11.5-30.1-11.5-41.6,0l-30,30c-11.5,11.5-11.5,30.1,0,41.6l34.5,34.5l-23.4,23.4c-4.4,4.4-7.3,10.1-8.3,16.3
		c-2.5,16,8.5,31.1,24.5,33.6l132.9,20.7c3,0.5,6,0.5,9,0C478.4,491.8,489.4,476.8,486.9,460.8z"/>
	<path d="M187.8,115l23.3-23.3c4.4-4.4,7.3-10.1,8.3-16.3c2.5-16-8.5-31.1-24.5-33.6L62,21.1c-3-0.5-6-0.5-9,0
		c-16,2.5-27,17.5-24.5,33.6l20.7,132.9c1,6.2,3.9,11.9,8.3,16.3c11.5,11.5,30.1,11.5,41.6,0l17.4-17.4l34.5,34.5
		c11.5,11.5,30.1,11.5,41.6,0l30-30c11.5-11.5,11.5-30.1,0-41.6L187.8,115z"/>
	<path d="M192.4,294.4c-11.5-11.5-30.1-11.5-41.6,0l-34.5,34.5l-17.4-17.4c-4.4-4.4-10.1-7.3-16.3-8.3c-16-2.5-31.1,8.5-33.6,24.5
		L28.4,460.8c-0.5,3-0.5,6,0,9c2.5,16,17.5,27,33.6,24.5l132.9-20.7c6.2-1,11.9-3.9,16.3-8.3c11.5-11.5,11.5-30.1,0-41.6l-23.4-23.4
		l34.5-34.5c11.5-11.5,11.5-30.1,0-41.6L192.4,294.4z"/>
</g>
</svg>
