<?xml version="1.0" encoding="utf-8"?>
 <svg version="1.1" id="Capa_1" xmlns="http://www.w3.org/2000/svg" 
  viewBox="0 0 187.1 156.9" >
    <g>
      <path d="M93.1,40.2c-20.3,0-36.8,16.5-36.8,36.8c0,20.3,16.5,36.8,36.8,36.8c20.3,0,36.8-16.5,36.8-36.8
        C129.9,56.7,113.4,40.2,93.1,40.2z M93.1,108.1C75.9,108.1,62,94.2,62,77C62,59.9,75.9,46,93.1,46c17.2,0,31.1,13.9,31.1,31.1
        C124.1,94.2,110.3,108.1,93.1,108.1z"/>
      <path d="M93.1,71.1c-1.6,0-2.9,1.3-2.9,2.9v18.5c0,1.6,1.3,2.9,2.9,2.9S96,94,96,92.4V73.9C96,72.3,94.7,71.1,93.1,71.1z"/>
      <circle cx="93.1" cy="63.7" r="3.9"/>
    </g>
</svg>
