<?xml version="1.0" encoding="utf-8"?>
<!-- Generator: Adobe Illustrator 24.1.2, SVG Export Plug-In . SVG Version: 6.00 Build 0)  -->
<svg version="1.1" id="Capa_1" xmlns="http://www.w3.org/2000/svg" xmlns:xlink="http://www.w3.org/1999/xlink" x="0px" y="0px"
	 viewBox="0 0 512 512" style="enable-background:new 0 0 512 512;" xml:space="preserve">
<g>
	<path d="M5.5,191.2v250.5c0,17.3,14,31.3,31.3,31.3h93.9V159.9H36.8C19.5,159.9,5.5,173.9,5.5,191.2z"/>
	<path d="M448.7,191.2L448.7,191.2l-92.5,0c-8.1,0-12.1-5.4-13.5-7.7c-1.4-2.3-4.1-8.5-0.2-15.5l32.6-58.7c7.2-12.9,7.9-28,2-41.5
		c-5.9-13.5-17.4-23.3-31.7-26.9l-23-5.7c-5.6-1.4-11.5,0.4-15.4,4.7L182.1,178.5c-13,14.4-20.1,33-20.1,52.4v163.8
		c0,43.2,35.1,78.3,78.3,78.3l155.8,0c35.2,0,66.2-23.7,75.5-57.6L505,262c1-4.3,1.5-8.6,1.5-13
		C506.5,217.1,480.6,191.2,448.7,191.2z"/>
</g>
</svg>