<?xml version="1.0" encoding="utf-8"?>
 <svg version="1.1" id="Capa_1" xmlns="http://www.w3.org/2000/svg" viewBox="0 0 178.7 170.8" >
            <g id="XMLID_806_">
              <g id="XMLID_386_">
                <path id="XMLID_389_" d="M137.5,90.1c-0.8-8.4-4.6-16.4-10.6-22.3c-5.1-5.1-11.4-8.4-18-9.9v-4.6c2.7-0.7,4.7-3.1,4.7-6
                  c0-3.4-2.8-6.2-6.2-6.2H94.3c-3.4,0-6.2,2.8-6.2,6.2c0,2.9,2,5.3,4.7,6v4.6c-6.6,1.5-12.8,4.8-17.9,9.9c-1.1,1.1-2.1,2.3-3.1,3.5
                  c0,0-0.1,0-0.1,0h-13c-1,0-1.8,0.8-1.8,1.8s0.8,1.8,1.8,1.8h10.6c-1.3,2.2-2.4,4.6-3.2,7H46.3c-1,0-1.8,0.8-1.8,1.8
                  c0,1,0.8,1.8,1.8,1.8H65c-0.5,2.3-0.8,4.6-0.9,7h-8c-1,0-1.8,0.8-1.8,1.8s0.8,1.8,1.8,1.8h8.1c0.2,2.4,0.5,4.7,1.1,7H53.5
                  c-1,0-1.8,0.8-1.8,1.8c0,1,0.8,1.8,1.8,1.8h13c1.8,4.7,4.6,9.2,8.4,12.9c6,6,13.9,9.8,22.4,10.6c1.2,0.1,2.4,0.2,3.6,0.2
                  c7.1,0,14.1-2.1,20.1-5.9c0.8-0.5,1.1-1.7,0.5-2.5s-1.7-1.1-2.5-0.5c-13,8.5-30.5,6.6-41.5-4.4c-12.9-12.9-12.9-33.9,0-46.9
                  c12.9-12.9,33.9-12.9,46.9,0c11,11,12.8,28.4,4.4,41.4c-0.5,0.8-0.3,2,0.5,2.5c0.8,0.5,2,0.3,2.5-0.5
                  C136.2,106.8,138.3,98.4,137.5,90.1z M91.7,47.3c0-1.4,1.1-2.5,2.5-2.5h13.1c1.4,0,2.5,1.1,2.5,2.5c0,1.4-1.1,2.5-2.5,2.5h-0.3
                  H94.6h-0.3C92.9,49.8,91.7,48.7,91.7,47.3z M96.4,57.3v-3.8h8.8v3.8C102.3,57,99.4,57,96.4,57.3z"/>
                <path id="XMLID_391_" d="M125.6,116.7c-0.5,0-0.9,0.2-1.3,0.5c-0.3,0.3-0.5,0.8-0.5,1.3c0,0.5,0.2,0.9,0.5,1.3
                  c0.3,0.3,0.8,0.5,1.3,0.5c0.5,0,0.9-0.2,1.3-0.5c0.3-0.3,0.5-0.8,0.5-1.3c0-0.5-0.2-0.9-0.5-1.3
                  C126.5,116.9,126.1,116.7,125.6,116.7z"/>
                <path id="XMLID_394_" d="M100.9,65.6c-15.6,0-28.2,12.7-28.2,28.2S85.3,122,100.9,122s28.2-12.7,28.2-28.2S116.4,65.6,100.9,65.6z
                  M100.9,118.4c-13.6,0-24.6-11-24.6-24.6s11-24.6,24.6-24.6s24.6,11,24.6,24.6S114.4,118.4,100.9,118.4z"/>
                <path id="XMLID_397_" d="M112.4,79.7l-9,9c-0.8-0.4-1.6-0.6-2.5-0.6c-0.9,0-1.7,0.2-2.5,0.6l-4-4c-0.7-0.7-1.9-0.7-2.6,0
                  c-0.7,0.7-0.7,1.9,0,2.6l4,4c-0.4,0.8-0.6,1.6-0.6,2.5c0,3.1,2.5,5.7,5.7,5.7c3.1,0,5.7-2.5,5.7-5.7c0-0.9-0.2-1.7-0.6-2.5
                  l8.8-8.8l0,0l0.3-0.3c0.7-0.7,0.7-1.9,0-2.6C114.2,79,113.1,79,112.4,79.7z M100.9,95.8c-1.1,0-2-0.9-2-2c0-1.1,0.9-2,2-2
                  c1.1,0,2,0.9,2,2C102.9,94.9,102,95.8,100.9,95.8z"/>
                <path id="XMLID_398_" d="M120.3,92h-1.7c-1,0-1.8,0.8-1.8,1.8s0.8,1.8,1.8,1.8h1.7c1,0,1.8-0.8,1.8-1.8S121.3,92,120.3,92z"/>
                <path id="XMLID_399_" d="M83.1,92h-1.7c-1,0-1.8,0.8-1.8,1.8s0.8,1.8,1.8,1.8h1.7c1,0,1.8-0.8,1.8-1.8S84.1,92,83.1,92z"/>
                <path id="XMLID_400_" d="M100.9,77.8c1,0,1.8-0.8,1.8-1.8v-1.7c0-1-0.8-1.8-1.8-1.8c-1,0-1.8,0.8-1.8,1.8V76
                  C99.1,77,99.9,77.8,100.9,77.8z"/>
                <path id="XMLID_424_" d="M100.8,109.8c-1,0-1.8,0.8-1.8,1.8v1.7c0,1,0.8,1.8,1.8,1.8c1,0,1.8-0.8,1.8-1.8v-1.7
                  C102.7,110.6,101.8,109.8,100.8,109.8z"/>
                <path id="XMLID_425_" d="M46.3,103.2c-0.5,0-0.9,0.2-1.3,0.5c-0.3,0.3-0.5,0.8-0.5,1.3c0,0.5,0.2,0.9,0.5,1.3
                  c0.3,0.3,0.8,0.5,1.3,0.5s0.9-0.2,1.3-0.5c0.3-0.3,0.5-0.8,0.5-1.3s-0.2-0.9-0.5-1.3C47.2,103.4,46.7,103.2,46.3,103.2z"/>
              </g>
            </g>
            </svg>

