<?xml version="1.0" encoding="utf-8"?>
 <svg version="1.1" id="Capa_1" xmlns="http://www.w3.org/2000/svg" 
              viewBox="0 0 159.7 168.8" >
            <g>
              <path d="M90.4,80.4L77.5,92.7l-6.2-6.4c-0.7-0.7-1.8-0.7-2.5,0c-0.7,0.7-0.7,1.8,0,2.5l7.5,7.6c0.7,0.7,1.8,0.7,2.5,0.1L92.9,83
                c0.3-0.3,0.5-0.8,0.6-1.3c0-0.5-0.2-0.9-0.5-1.3C92.3,79.8,91.1,79.8,90.4,80.4z"/>
              <path d="M80.8,61.6C66,61.6,54,73.7,54,88.5c0,14.8,12,26.8,26.8,26.8c14.8,0,26.8-12,26.8-26.8C107.6,73.7,95.6,61.6,80.8,61.6z
                M80.8,111.7c-12.8,0-23.2-10.4-23.2-23.2S68,65.2,80.8,65.2c12.8,0,23.2,10.4,23.2,23.2S93.6,111.7,80.8,111.7z"/>
              <path d="M123.5,87.5l-5.8-8.9l0.6-10.6c0-0.7-0.3-1.4-1-1.7l-9.5-4.8L103,52c-0.3-0.6-1-1-1.7-1l-10.7,0.6l-8.9-5.9
                c-0.6-0.4-1.4-0.4-2,0l-8.9,5.9l-10.6-0.6c-0.7,0-1.4,0.3-1.7,1l-4.8,9.5l-9.5,4.8c-0.6,0.3-1,1-1,1.7l0.6,10.6L38,87.4
                c-0.4,0.6-0.4,1.4,0,2l5.9,8.9L43.3,109c0,0.7,0.3,1.4,1,1.7l9.5,4.8l4.8,9.5c0.3,0.6,1,1,1.7,1l10.6-0.6l8.9,5.9
                c0.6,0.4,1.4,0.4,2,0l8.9-5.9l10.6,0.6c0.7,0,1.4-0.3,1.7-1l4.8-9.5l9.5-4.8c0.6-0.3,1-1,1-1.7l-0.6-10.6l5.9-8.9
                C123.9,88.8,123.9,88.1,123.5,87.5z M114.4,96.9c-0.2,0.3-0.3,0.7-0.3,1.1l0.6,10.1l-9,4.5c-0.3,0.2-0.6,0.4-0.8,0.8l-4.5,9
                l-10.1-0.6c-0.4,0-0.8,0.1-1.1,0.3l-8.4,5.5l-8.4-5.5c-0.3-0.2-0.6-0.3-1-0.3h-0.1l-10.1,0.6l-4.5-9c-0.2-0.3-0.4-0.6-0.8-0.8
                l-9-4.5l0.6-10.1c0-0.4-0.1-0.8-0.3-1.1l-5.5-8.4l5.5-8.4c0.2-0.3,0.3-0.7,0.3-1.1L47,68.9l9-4.5c0.3-0.2,0.6-0.4,0.8-0.8l4.5-9
                l10.1,0.6c0.4,0,0.8-0.1,1.1-0.3l8.4-5.5l8.4,5.5c0.3,0.2,0.7,0.3,1.1,0.3l10.1-0.6l4.5,9c0.2,0.3,0.4,0.6,0.8,0.8l9,4.5L114.1,79
                c0,0.4,0.1,0.8,0.3,1.1l5.5,8.4L114.4,96.9z"/>
            </g>
            </svg>
