<?xml version="1.0" encoding="utf-8"?>
 <svg version="1.1" id="Capa_1" xmlns="http://www.w3.org/2000/svg" viewBox="0 0 512 512" >
                  <path  d="M450.5,407.5c-1.5-1-12.9-8.9-24.2-32.9c-20.9-44.1-25.2-106.2-25.2-150.5c0-0.2,0-0.4,0-0.6
                    c-0.2-58.6-35.4-109.1-85.7-131.8c-0.2-31.3-25.7-56.7-57-56.7h-4.7c-31.3,0-56.8,25.4-57,56.7c-50.5,22.7-85.7,73.5-85.7,132.3
                    c0,44.3-4.4,106.4-25.2,150.5c-11.4,24-22.7,31.9-24.2,32.9c-6.4,2.9-9.5,9.7-8,16.6c1.5,6.9,8,11.7,15.1,11.7h119.1
                    c13,24.5,38.8,41.2,68.4,41.2s55.4-16.7,68.4-41.2h119.1c7.1,0,13.6-4.8,15.1-11.7C460,417.2,456.9,410.4,450.5,407.5z"/>
                  </svg>