<?xml version="1.0" encoding="utf-8"?>
<!-- Generator: Adobe Illustrator 24.1.1, SVG Export Plug-In . SVG Version: 6.00 Build 0)  -->
<svg version="1.1" id="Capa_1" xmlns="http://www.w3.org/2000/svg" xmlns:xlink="http://www.w3.org/1999/xlink" x="0px" y="0px"
	 viewBox="0 0 512 512" style="enable-background:new 0 0 512 512;" xml:space="preserve">
<g>
	<path d="M346.5,171.7c-4.8-2.8-11-1.1-13.8,3.7L250.2,317l-59.1-59.5c-3.9-3.9-10.4-3.9-14.3,0l0,0c-3.9,3.9-3.9,10.4,0,14.3
		l67.5,67.9c0.2,0.2,0.4,0.4,0.6,0.5c0.7,0.7,1.5,1.4,2.4,1.9c4.8,2.8,11,1.1,13.8-3.7l89.1-152.9
		C352.9,180.7,351.3,174.5,346.5,171.7z"/>
	<path d="M262.7,92.2c-83.1,0-150.8,67.6-150.8,150.8c0,83.1,67.6,150.7,150.8,150.7S413.4,326,413.4,242.9
		C413.4,159.8,345.8,92.2,262.7,92.2z M262.7,375.7c-73.2,0-132.8-59.6-132.8-132.7s59.6-132.8,132.8-132.8
		c73.2,0,132.8,59.6,132.8,132.8S335.9,375.7,262.7,375.7z"/>
</g>
</svg>
