<?xml version="1.0" encoding="utf-8"?>
 <svg version="1.1" id="Capa_1" xmlns="http://www.w3.org/2000/svg" 
	            viewBox="0 0 178.7 162" >
            <g>
              <path d="M133.2,55.4H96.7v-9.1c0-0.8-0.4-1.6-1-2.2c-0.6-0.5-1.5-0.8-2.3-0.6l-45,8.4c-1.3,0.2-2.3,1.4-2.3,2.8v53.8
                c0,1.3,1,2.5,2.3,2.8l45,8.4c0.2,0,0.3,0.1,0.5,0.1c0.7,0,1.3-0.2,1.8-0.6c0.6-0.5,1-1.3,1-2.2V106h36.5c1.6,0,2.8-1.3,2.8-2.8v-45
                C136,56.7,134.7,55.4,133.2,55.4z M71.4,100.4c-7.7,0-14.1-7.6-14.1-16.9c0-9.3,6.3-16.9,14.1-16.9s14.1,7.6,14.1,16.9
                C85.4,92.8,79.1,100.4,71.4,100.4z M96.7,61H125l-17.3,13.4l-11.1-7V61z M130.4,100.4H96.7V74.1l9.7,6.2c0.5,0.3,1,0.4,1.5,0.4
                c0.6,0,1.2-0.2,1.7-0.6L130.4,64V100.4z"/>
              <ellipse cx="71.4" cy="83.5" rx="8.4" ry="11.2"/>
            </g>
            </svg>
