<?xml version="1.0" encoding="utf-8"?>
<!-- Generator: Adobe Illustrator 24.1.2, SVG Export Plug-In . SVG Version: 6.00 Build 0)  -->
<svg version="1.1" id="Capa_1" xmlns="http://www.w3.org/2000/svg" xmlns:xlink="http://www.w3.org/1999/xlink" x="0px" y="0px"
	 viewBox="0 0 512 512" style="enable-background:new 0 0 512 512;" xml:space="preserve">
<path d="M256,511.8C115,511.8,0.2,397,0.2,256S115,0.2,256,0.2S511.8,115,511.8,256C511.8,396.9,397,511.8,256,511.8z M256,33
	C133.1,33,33,133,33,256c0,122.9,99.9,223,223,223c122.9,0,223-99.9,223-223S378.9,33,256,33z"/>
<g>
	<g>
		<path d="M240.1,426.1v-41.9c-24.1-0.5-48.9-7.8-63.4-18.3l9.9-27.7c15,9.9,36.5,17.9,59.8,17.9c29.5,0,49.4-17.1,49.4-40.6
			c0-22.8-16.1-37-46.9-49.4c-42.2-16.6-68.4-35.7-68.4-71.7c0-34.4,24.5-60.6,62.6-66.8V85.5h25.7v40.2
			c24.9,0.8,41.9,7.5,53.9,14.5l-10.4,27.4c-8.8-4.9-25.7-14-52.3-14c-31.9,0-44,19.1-44,35.7c0,21.5,15.3,32.4,51.5,47.3
			c42.7,17.4,64.2,39,64.2,75.9c0,32.8-22.8,63.4-65.5,70.4v43.2L240.1,426.1L240.1,426.1z"/>
		<path d="M270.2,430h-34.1V388c-23.1-1.1-47-8.3-61.8-18.8l-2.4-1.8l12.8-35.4l4.3,2.9c16.4,10.8,37.3,17.2,57.5,17.2
			c26.8,0,45.4-15.1,45.4-36.7c0-19.6-12.9-32.8-44.3-45.7c-36.8-14.5-70.9-33.6-70.9-75.4c0-35.4,24.4-62.6,62.6-70.1V81.6h33.5
			v40.5c19.8,1.1,36.8,6.1,52,14.8l2.9,1.8l-13.2,34.9l-4-2.4c-7.2-4-23.7-13.5-50.2-13.5c-29.5,0-40,17.1-40,31.7
			c0,18.2,11,27.9,48.9,43.7c46.9,19.1,66.8,42.9,66.8,79.5c0,30.6-20.2,64.9-65.5,73.8V430H270.2z M244,422.1h18.2v-42.6l3.3-0.5
			c43-7,62.2-38.6,62.2-66.6c0-33.3-17.9-54.3-61.8-72.2c-36.5-15.1-53.9-26.6-53.9-51c0-19.8,14.8-39.7,48-39.7
			c24.4,0,41.1,7.5,50.2,12.4l7.5-19.9c-14.2-7.7-30.3-11.6-49.1-12.3l-3.8-0.2V89.5h-17.7v41.3l-3.3,0.5
			c-36,5.9-59.3,30.6-59.3,62.8c0,30.4,18.5,49.4,66,68.1c34.6,14,49.4,30,49.4,53.1c0,26.3-22,44.6-53.4,44.6
			c-19.9,0-40.6-5.7-57.7-15.8l-7.2,20.2c14.3,9.2,37.5,15.5,58.7,15.8h4v42.1H244z"/>
	</g>
</g>
</svg>
