<?xml version="1.0" encoding="utf-8"?>
<!-- Generator: Adobe Illustrator 24.1.2, SVG Export Plug-In . SVG Version: 6.00 Build 0)  -->
<svg version="1.1" id="Capa_1" xmlns="http://www.w3.org/2000/svg" xmlns:xlink="http://www.w3.org/1999/xlink" x="0px" y="0px"
	 viewBox="0 0 512 512" style="enable-background:new 0 0 512 512;" xml:space="preserve">
<g>
	<path d="M256.2,2C116,2,1.8,116.1,1.8,256.4S116,510.7,256.2,510.7s254.4-114.3,254.4-254.4C510.6,116.1,396.5,2,256.2,2z
		 M256.2,478.1c-122.4,0-221.7-99.5-221.7-221.7C34.5,134,134,34.6,256.2,34.6S477.9,134,477.9,256.4S378.4,478.1,256.2,478.1z"/>
	<path d="M269.2,233.6c-37.7-15.7-48.7-25.4-48.7-43.4c0-14.6,10.5-31.5,39.8-31.5c26.3,0,42.8,9.5,49.9,13.5l4,2.4l13.2-34.7
		l-2.9-1.7c-15.1-8.7-32-13.6-51.7-14.7V83h-33.3v42.3c-38,7.4-62.3,34.6-62.3,69.7c0,41.5,33.9,60.5,70.5,75
		c31.2,12.8,44.1,26,44.1,45.5c0,21.4-18.5,36.5-45.2,36.5c-20.1,0-40.9-6.3-57.2-17.1l-4.3-2.9l-12.7,35.2l2.4,1.7
		c14.7,10.5,38.5,17.6,61.5,18.7v41.8h33.9h0.2V386c45-8.9,65.1-43,65.1-73.4C335.6,276.2,315.8,252.6,269.2,233.6z"/>
</g>
</svg>
