<?xml version="1.0" encoding="utf-8"?>
 <svg version="1.1" id="Capa_1" xmlns="http://www.w3.org/2000/svg" 
              viewBox="0 0 187.1 170.8">
            <path d="M117.5,101c-3.8,0-7.2,1.7-9.5,4.3L80.7,89.7c0.4-1.2,0.6-2.5,0.6-3.9c0-1.4-0.2-2.7-0.6-3.9L108,66.4
              c2.3,2.6,5.7,4.3,9.5,4.3c7,0,12.6-5.7,12.6-12.6s-5.7-12.6-12.6-12.6c-7,0-12.6,5.7-12.6,12.6c0,1.4,0.2,2.7,0.6,3.9L78.2,77.6
              c-2.3-2.6-5.7-4.3-9.5-4.3c-7,0-12.6,5.7-12.6,12.6c0,7,5.7,12.6,12.6,12.6c3.8,0,7.2-1.7,9.5-4.3l27.3,15.6
              c-0.4,1.2-0.6,2.5-0.6,3.9c0,7,5.7,12.6,12.6,12.6c7,0,12.6-5.7,12.6-12.6C130.1,106.6,124.4,101,117.5,101z M117.5,50.5
              c4.2,0,7.6,3.4,7.6,7.6c0,4.2-3.4,7.6-7.6,7.6c-4.2,0-7.6-3.4-7.6-7.6C109.9,53.9,113.3,50.5,117.5,50.5z M68.7,93.4
              c-4.2,0-7.6-3.4-7.6-7.6c0-4.2,3.4-7.6,7.6-7.6c4.2,0,7.6,3.4,7.6,7.6C76.3,90,72.9,93.4,68.7,93.4z M117.5,121.2
              c-4.2,0-7.6-3.4-7.6-7.6c0-4.2,3.4-7.6,7.6-7.6c4.2,0,7.6,3.4,7.6,7.6C125,117.8,121.7,121.2,117.5,121.2z"/>
            </svg>
