<?xml version="1.0" encoding="utf-8"?>
  <svg version="1.1" id="Capa_1" xmlns="http://www.w3.org/2000/svg" 
	                  viewBox="0 0 407.6 357.4" >
                  <path d="M355.5,10.1l-1.4-0.6h-1.8H63h-2.6l-2.7,0.7l-2.1,1.4L54.4,14l-48,89l0.6,37.2c0,0,3.4,23.5,25.5,31.1V301
                    c-0.4,3.4-0.9,11.8,2,21c4.9,15.5,17.1,26,34.5,29.5l1.2,0.2H340l0.3,0c1.4-0.1,8.5-0.7,16.3-6.3c6.7-4.9,15.3-14.7,18.6-33.8
                    l0.2-1.2V171.2c9.8-3.4,22.7-12.3,25.8-35.2v-32.5l-43.9-90.8l-0.8-1.6L355.5,10.1z M338.9,325h-87V215.6c0-5.6-4.3-10.2-9.6-10.2
                    h-76.8c-5.3,0-9.6,4.6-9.6,10.2V325H72.6c-11-2.6-13.2-8.7-13.9-10.8c-1.6-4.6-1.2-9.2-1.1-9.9l0.2-0.9v-132
                    c9.2-3.6,20.6-12.6,27.8-34.8c0,0,0.8,35.2,38.3,36.8c0,0,32.2,2.8,39.9-35.6c0,0,8,36.5,39.7,35.6c0,0,31.9,2.6,39.1-36.9
                    c0,0,3.1,36.1,40.4,36.9c0,0,34-3.3,39.9-31.7c0,0,6.6,21.7,27.1,29.2v137.1C347.3,322.3,340.5,324.6,338.9,325z"/>
                  </svg>
