<?xml version="1.0" encoding="utf-8"?>
<!-- Generator: Adobe Illustrator 24.1.1, SVG Export Plug-In . SVG Version: 6.00 Build 0)  -->
<svg version="1.1" id="Capa_1" xmlns="http://www.w3.org/2000/svg" xmlns:xlink="http://www.w3.org/1999/xlink" x="0px" y="0px"
	 viewBox="0 0 512 512" style="enable-background:new 0 0 512 512;" xml:space="preserve">
<path d="M189.9,389.7c-52.4-27.9-85-82.1-85-141.5C105,159.9,176.8,88,265.1,88c14.8,0,29.4,2,43.5,6l-5.4,19.3
	c-12.3-3.5-25.1-5.2-38.1-5.2C187.8,108,125,170.9,125,248.2c0,51.9,28.5,99.4,74.4,123.8L189.9,389.7z"/>
<path d="M265.1,408.4c-13.5,0-26.9-1.7-39.8-5l5-19.4c11.3,2.9,23,4.4,34.8,4.4c77.3,0,140.2-62.9,140.2-140.2
	c0-51.7-28.3-99.1-74-123.6l9.5-17.6c52.1,28,84.5,82.1,84.5,141.2C425.3,336.6,353.5,408.4,265.1,408.4z"/>
<path d="M191.2,334.7l11.4,48.8c0.3,1.8-0.8,3.5-2.6,3.9l-48.1,13.6c-1.2,0.3-2.2-1-1.5-2.1l38.3-64.7
	C189.3,333.2,191,333.5,191.2,334.7z"/>
<path d="M338.5,162.4l-10-49.5c-0.3-1.8,0.9-3.5,2.7-3.9L380,96.8c1.2-0.2,2.1,1.1,1.5,2.1l-40.4,64
	C340.4,164,338.7,163.7,338.5,162.4z"/>
</svg>
