<?xml version="1.0" encoding="utf-8"?>
<svg version="1.1" id="Capa_1" xmlns="http://www.w3.org/2000/svg" 
	            viewBox="0 0 159.7 156.9" >
              <g>
                <path d="M120.1,76V61.5c0-0.7-0.5-1.1-1.2-1.2h-3.2l-1.4-9.5c-0.1-0.7-0.7-1.1-1.3-1l-18,2.7H95l-52.5,7.9c0,0-1,0.2-1,1.1v14.4
                  c0,0.7,0.5,1.1,1.1,1.2c2.9,0,5.2,2.3,5.2,5.2c0,2.9-2.3,5.2-5.2,5.2c-0.7,0-1.1,0.5-1.2,1.1v14.4c0,0.7,0.5,1.1,1.2,1.2h76.2
                  c0.7,0,1.1-0.5,1.2-1.2V88.7c0-0.7-0.5-1.1-1.1-1.2c-2.9,0-5.2-2.3-5.2-5.2c0-2.9,2.3-5.2,5.2-5.2h0
                  C119.6,77.1,120.1,76.6,120.1,76z M94.2,55l0.5,3.1c0.1,0.6,0.6,1,1.1,1H96c0.7-0.1,1.1-0.7,1-1.3l-0.5-3.1l15.7-2.3l1.2,8H58.3
                  L94.2,55z M117.9,74.8c-4.1,0.7-7,4.5-6.3,8.6c0.4,3.3,2.9,5.8,6.2,6.4V102h-17.2v-3.2c0-0.7-0.5-1.2-1.2-1.2
                  c-0.7,0-1.2,0.5-1.2,1.2v3.2H43.9V89.8c4.1-0.7,7-4.5,6.3-8.6c-0.5-3.2-3-5.8-6.3-6.3V62.7h54.4v3.1c0,0.7,0.5,1.2,1.2,1.2
                  s1.2-0.5,1.2-1.2v-3.2h17.2V74.8z"/>
                <path d="M99.4,84.1c-0.7,0-1.1,0.5-1.2,1.1v7.7c0,0.7,0.5,1.2,1.2,1.2s1.2-0.5,1.2-1.2v-7.6C100.6,84.6,100.1,84.1,99.4,84.1z"/>
                <path d="M99.4,70.6c-0.7,0-1.1,0.5-1.2,1.1v7.7c0,0.7,0.5,1.2,1.2,1.2s1.2-0.5,1.2-1.2v-7.7C100.6,71.1,100.1,70.6,99.4,70.6z"/>
                <path d="M56.5,72.4h14.4c0.7,0,1.2-0.5,1.2-1.2s-0.5-1.1-1.2-1.1H56.5c-0.7,0-1.2,0.5-1.2,1.2C55.3,72,55.8,72.4,56.5,72.4z"/>
                  <path d="M85.3,77.5H56.5c-0.7,0-1.2,0.5-1.2,1.2s0.5,1.2,1.2,1.2h28.8c0.7,0,1.2-0.5,1.2-1.2S85.9,77.5,85.3,77.5z"/>
                  <path d="M85.3,84.8H56.5c-0.7,0-1.2,0.5-1.2,1.2c0,0.7,0.5,1.2,1.2,1.2h28.8c0.7,0,1.2-0.5,1.2-1.2C86.5,85.4,85.9,84.8,85.3,84.8z
                    "/>
                  <path d="M85.3,92.2H56.5c-0.7,0-1.2,0.5-1.2,1.2s0.5,1.2,1.2,1.2h28.8c0.7,0,1.2-0.5,1.2-1.2S85.9,92.2,85.3,92.2z"/>
                </g>
                </svg>

