<?xml version="1.0" encoding="utf-8"?>
<!-- Generator: Adobe Illustrator 24.1.2, SVG Export Plug-In . SVG Version: 6.00 Build 0)  -->
<svg version="1.1" id="Capa_1" xmlns="http://www.w3.org/2000/svg" xmlns:xlink="http://www.w3.org/1999/xlink" x="0px" y="0px"
	 viewBox="0 0 512 512" style="enable-background:new 0 0 512 512;" xml:space="preserve">
<path id="Trazado_118" d="M502.7,186.2L477.1,45.8c-0.2-1.7-1.8-2.9-3.5-2.7c-0.6,0.1-1.1,0.3-1.6,0.7l-39,39.8
	c-1,0.8-2.3,0.9-3.4,0.2c-22.8-12.2-230.2-148-375.8,67.7C18.8,206,8.1,272.6,24.5,335.3c0,0,5.7,29.8,24.2,29.1
	c7.6-0.4,15.7-7.4,14.6-26.1c-3.1-48.7,9.1-97.2,34.8-138.7c0,0,94.8-156.2,286.8-67.3c1.3,0.7,1.7,2.4,1,3.6
	c-0.1,0.2-0.3,0.4-0.5,0.6l-41.1,41.7c-1.1,1.2-1,3,0.1,4.1c0.6,0.5,1.3,0.8,2.1,0.8l153.3,6.3c1.5,0,2.8-1.2,2.8-2.8
	C502.7,186.4,502.7,186.3,502.7,186.2z"/>
<path id="Trazado_119" d="M103.1,445.3c4,1.2,6.3,5.4,5.3,9.4c-1.3,3.9-5.5,6-9.3,4.7c-0.1,0-0.2-0.1-0.2-0.1
	c-4-1.2-6.3-5.4-5.2-9.5c1.3-3.9,5.5-5.9,9.4-4.6C103,445.3,103.1,445.3,103.1,445.3z"/>
<path id="Trazado_120" d="M121.6,467c-2.6-1.6-6-0.9-7.7,1.7c-1.5,2.7-0.5,6,2.1,7.5c2.6,1.6,6,0.9,7.7-1.7
	C125.2,471.8,124.2,468.5,121.6,467z"/>
<path id="Trazado_121" d="M135.5,485.5c-1.5-0.9-3.5-0.5-4.4,1c-0.9,1.5-0.3,3.5,1.2,4.3c0,0,0,0,0,0c1.5,1,3.5,0.5,4.5-1
	C137.6,488.3,137,486.4,135.5,485.5z"/>
<path id="Trazado_122" d="M86.5,418.6c5,2.8,6.8,9,4.1,14.1c0,0,0,0.1-0.1,0.1c-3.2,4.8-9.6,6.2-14.5,3.1c-5-2.8-6.8-9.1-4-14.1
	c0,0,0-0.1,0.1-0.1C75.3,416.9,81.7,415.5,86.5,418.6z"/>
<path id="Trazado_123" d="M68.4,383.1c6,3.3,8.1,10.8,4.8,16.8c0,0,0,0,0,0.1c-3.8,5.8-11.5,7.5-17.3,3.8c-6-3.3-8.1-10.9-4.8-16.8
	c0,0,0,0,0-0.1C55,381.2,62.6,379.5,68.4,383.1z"/>
</svg>
