<?xml version="1.0" encoding="utf-8"?>
<svg version="1.1" id="Capa_1" xmlns="http://www.w3.org/2000/svg" viewBox="0 0 255.5 362.6" >

<g>
	<path  d="M241.7,76.3l-54.5-65.9c-0.8-1.2-2.7-0.9-3.1,0.5l-7.3,33.2c-0.2,0.7-0.8,1.2-1.6,1.2
		C160.3,46,17.7,39.5,10.5,198.6c0,0-4.7,58.8,40.5,105.9c0,0,11.7,13.9,20.6,7.7c3.6-2.6,5.5-8.8-0.6-18.3
		c-12.7-19-23.8-46.3-24.3-83.9c0,0,0-111.9,121-125.2c1-0.1,1.8,1.1,1.5,2.1l-7.8,34.8c-0.4,1.5,1.3,2.7,2.6,1.8l77.3-44.7
		C242.1,78.2,242.3,77.1,241.7,76.3z"/>
	
		<ellipse transform="matrix(0.9732 -0.2298 0.2298 0.9732 -75.3243 37.5501)"  cx="123.6" cy="342.2" rx="4.5" ry="4.5"/>
	<path  d="M138.1,343.4c-1.8,0-3.3,1.5-3.3,3.3s1.5,3.3,3.3,3.3c1.8,0,3.3-1.5,3.3-3.3S139.9,343.4,138.1,343.4z"/>
	<path  d="M150.5,348.8c-1.1,0-1.9,0.9-1.9,1.9c0,1.1,0.9,1.9,1.9,1.9c1.1,0,1.9-0.9,1.9-1.9
		C152.4,349.7,151.5,348.8,150.5,348.8z"/>
	<circle  cx="106.4" cy="335.1" r="6.2"/>
	<circle  cx="86.9" cy="323.3" r="7.4"/>
</g>
</svg>
