<?xml version="1.0" encoding="utf-8"?>
<!-- Generator: Adobe Illustrator 24.1.2, SVG Export Plug-In . SVG Version: 6.00 Build 0)  -->
<svg version="1.1" id="Layer_1" xmlns="http://www.w3.org/2000/svg" xmlns:xlink="http://www.w3.org/1999/xlink" x="0px" y="0px"
	 viewBox="0 0 896.8 512" style="enable-background:new 0 0 896.8 512;" xml:space="preserve">

<circle  cx="672.2" cy="218.2" r="97.5"/>
<g>
	<defs>
		<path id="SVGID_1_" d="M626.4,317c0,0,50.7,49,55.3,122.9v17.6c0,0,1.3,10.3-3.4,13.3l183.9,2.1l8.1-89.5L777.7,286l-40.9,5.2
			l-54.2,26.5L626.4,317z"/>
	</defs>
	<clipPath id="SVGID_2_">
		<use xlink:href="#SVGID_1_"  style="overflow:visible;"/>
	</clipPath>
	<path d="M857.8,462.4v-15.1c0,0-4.1-118.4-118-147.9c0,0-24.4,24.2-66,24.4c0,0-39.1,2.4-68.6-23.6
		c0,0-108.3,35.4-115.4,150.2l0.1,11.9c0,0-1,5.6,7.6,4.9l352.9-0.1C850.5,467.2,857.8,468.3,857.8,462.4z"/>
</g>
<circle  cx="224.4" cy="218.8" r="97.5"/>
<circle  cx="449.8" cy="163.3" r="119.2"/>
<path  d="M222.8,461.9v-18.4c0,0,5-144.8,144.3-180.8c0,0,29.9,29.6,80.7,29.9c0,0,47.9,2.9,83.8-28.9
	c0,0,132.4,43.3,141.2,183.7l-0.1,14.6c0,0,1.3,6.8-9.3,6l-431.6-0.1C231.7,467.8,222.8,469,222.8,461.9z"/>
<g>
	<defs>
		<path id="SVGID_3_" d="M262.9,317.6c0,0-44.6,44.8-48,122.8V458c0,0-1.3,10.3,3.4,13.3l-183.9,2.1L26.4,384l92.6-97.4l40.9,5.2
			l54.2,26.5L262.9,317.6z"/>
	</defs>
	<clipPath id="SVGID_4_">
		<use xlink:href="#SVGID_3_"  style="overflow:visible;"/>
	</clipPath>
	<path d="M38.8,463v-15.1c0,0,4.1-118.4,118-147.9c0,0,24.4,24.2,66,24.4c0,0,39.1,2.4,68.6-23.6
		c0,0,108.3,35.4,115.4,150.2l-0.1,11.9c0,0,1,5.6-7.6,4.9l-352.9-0.1C46.1,467.8,38.8,468.8,38.8,463z"/>
</g>
</svg>
