<?xml version="1.0" encoding="utf-8"?>
<svg version="1.1" id="Capa_1" xmlns="http://www.w3.org/2000/svg" viewBox="0 0 159.7 170.8" >
<g>
  <path d="M93,83.3c-0.4,0.9-0.8,1.9-1.1,2.8c-2.3,5.6-4.6,11.2-6.9,16.8c-0.6,1.6-1.6,2.9-3.1,3.8c-3.2,2-7.7,0.9-9.7-2.3
    c-0.8-1.3-1.4-2.8-1.9-4.2c-1.8-4.4-3.6-8.8-5.4-13.3c-2-4.9-4-9.7-5.9-14.6c-0.1-0.3-0.3-0.6-0.4-1c0.3,0,0.4,0,0.6,0
    c2.9,0,5.9,0,8.8,0c0.4,0,0.6,0.1,0.8,0.5c2,5,4,10,6,15c1.1,2.7,2.2,5.5,3.3,8.2c0.1,0.1,0.1,0.3,0.3,0.5c0.3-0.8,0.6-1.5,0.9-2.3
    c1.8-4.5,3.6-8.9,5.5-13.4c0.7-1.7,1.4-3.5,2.3-5.2c2.2-4.3,7-4.4,9.8-2.8c1.5,0.9,2.4,2.2,3.1,3.7c1.3,3,2.5,6,3.7,9
    c1.5,3.6,3,7.2,4.4,10.8c0.2,0.5,0.4,1,0.7,1.7c0.5-0.9,1-1.6,1.4-2.3c2.5-4.7,3.8-9.7,3.6-15c-0.1-4.4-1.1-8.6-3.1-12.5
    c-2.8-5.6-7-9.9-12.5-13c-3.3-1.8-6.9-3-10.7-3.4c-5.1-0.6-10.1,0-15,1.6c-4.6,1.5-8.6,3.9-12.2,7c-4,3.5-7,7.6-9.1,12.5
    c-3,6.9-3.7,14.1-2.1,21.5c2.1,9.4,7.3,16.7,15.2,22c3.8,2.6,8,4.2,12.5,5.1c4,0.8,8,0.9,12.1,0.3c1.4-0.2,2.7-0.5,4.1-0.8
    c0.1,0,0.2,0,0.4,0c0,0.2,0,0.4,0,0.5c0,2.7,0,5.4,0,8.1c0,0.4-0.1,0.6-0.6,0.7c-6.4,1.3-12.7,1.2-19-0.2
    c-6.8-1.5-12.9-4.5-18.3-8.9c-6-4.9-10.5-11.1-13.3-18.4c-2.5-6.4-3.4-13-2.8-19.8c0.7-7.6,3.2-14.6,7.4-20.9
    c4-5.9,9.1-10.6,15.4-14c4.7-2.6,9.7-4.3,15-5.1c6.1-0.9,12.2-0.6,18.1,1.2c5.9,1.8,11.1,4.8,15.6,9.1c3.9,3.7,6.8,7.9,9,12.8
    c1.5,3.5,2.4,7.1,2.9,10.8c0.7,5.8,0.1,11.6-1.8,17.1c-1.4,4-3.3,7.7-5.9,11c-1.2,1.5-2.6,2.7-4.5,3.2c-3,0.9-6.4,0.2-8.2-3.1
    c-1-1.9-1.8-3.9-2.6-5.9c-2-4.8-4-9.7-6-14.5c-0.1-0.2-0.1-0.3-0.2-0.5C93.1,83.3,93,83.3,93,83.3z"/>
</g>
</svg>
